<svg xmlns="http://www.w3.org/2000/svg" viewBox="0 0 24 24" fill="#fff">
  <path d="M22.23 0H1.77C.79 0 0 .774 0 1.729v20.542C0 23.226.79 24 1.77 24h20.46c.98 0 1.77-.774 1.77-1.729V1.729C24 .774 23.21 0 22.23 0zM7.12 20.452H3.56V9h3.56v11.452zM5.34 7.452c-1.14 0-2.06-.92-2.06-2.06s.92-2.06 2.06-2.06 2.06.92 2.06 2.06-.92 2.06-2.06 2.06zm15.11 13H17.1v-5.6c0-1.34-.03-3.06-1.86-3.06-1.86 0-2.15 1.45-2.15 2.95v5.71h-3.56V9h3.42v1.56h.05c.48-.91 1.65-1.87 3.4-1.87 3.63 0 4.3 2.39 4.3 5.5v6.36z"/>
</svg>